2013 Miss America Swimsuit Competition

Note: This is only the Swimsuit Competition of the 2013 Miss America.
Original Source : miss.america.2013.720p.hdtv.x264-2hd

Screens:
 
http://bayimg.com/AajOMAaeI

Media Info:

2013 Miss America Swimsuit Competition.mkv

Format                                   : Matroska
Format version                           : Version 2
File size                                : 297 MiB
Duration                                 : 5mn 26s
Overall bit rate                         : 7 610 Kbps
Writing application                      : Lavf52.64.2
Writing library                          : Lavf52.64.2

Video
ID                                       : 1
Format                                   : AVC
Format/Info                              : Advanced Video Codec
Format profile                           : High@L3.1
Format settings, CABAC                   : Yes
Format settings, ReFrames                : 5 frames
Codec ID                                 : V_MPEG4/ISO/AVC
Duration                                 : 5mn 26s
Bit rate                                 : 7 075 Kbps
Width                                    : 1 280 pixels
Height                                   : 720 pixels
Display aspect ratio                     : 16:9
Frame rate                               : 29.970 fps
Color space                              : YUV
Chroma subsampling                       : 4:2:0
Bit depth                                : 8 bits
Scan type                                : Progressive
Bits/(Pixel*Frame)                       : 0.256
Stream size                              : 276 MiB (93%)
Default                                  : Yes
Forced                                   : No
Matrix coefficients                      : BT.709-5, BT.1361, IEC 61966-2-4 709, SMPTE RP177

Audio
ID                                       : 2
Format                                   : AC-3
Format/Info                              : Audio Coding 3
Mode extension                           : CM (complete main)
Format settings, Endianness              : Big
Codec ID                                 : A_AC3
Duration                                 : 5mn 26s
Bit rate mode                            : Constant
Bit rate                                 : 384 Kbps
Channel(s)                               : 6 channels
Channel positions                        : Front: L C R, Side: L R, LFE
Sampling rate                            : 48.0 KHz
Bit depth                                : 16 bits
Compression mode                         : Lossy
Stream size                              : 15.0 MiB (5%)
Default                                  : Yes
Forced                                   : No

